<svg width="49" height="49" viewBox="0 0 49 49" fill="none" xmlns="http://www.w3.org/2000/svg">
<circle cx="24.5" cy="24.5" r="24.5" fill="#F47D21"/>
<path d="M39 34.0013H37V20.0013C37 19.4709 36.7893 18.9622 36.4142 18.5871C36.0391 18.212 35.5304 18.0013 35 18.0013H27V12.0013C27.0002 11.6391 26.9021 11.2837 26.7161 10.9729C26.5301 10.6622 26.2633 10.4077 25.944 10.2368C25.6247 10.0658 25.265 9.98482 24.9032 10.0023C24.5415 10.0199 24.1913 10.1353 23.89 10.3363L13.89 17.0013C13.6157 17.1843 13.3909 17.4323 13.2356 17.7233C13.0803 18.0142 12.9994 18.339 13 18.6688V34.0013H11C10.7348 34.0013 10.4804 34.1067 10.2929 34.2942C10.1054 34.4817 10 34.7361 10 35.0013C10 35.2665 10.1054 35.5209 10.2929 35.7084C10.4804 35.8959 10.7348 36.0013 11 36.0013H39C39.2652 36.0013 39.5196 35.8959 39.7071 35.7084C39.8946 35.5209 40 35.2665 40 35.0013C40 34.7361 39.8946 34.4817 39.7071 34.2942C39.5196 34.1067 39.2652 34.0013 39 34.0013ZM35 20.0013V34.0013H27V20.0013H35ZM15 18.6688L25 12.0013V34.0013H15V18.6688ZM23 22.0013V24.0013C23 24.2665 22.8946 24.5209 22.7071 24.7084C22.5196 24.8959 22.2652 25.0013 22 25.0013C21.7348 25.0013 21.4804 24.8959 21.2929 24.7084C21.1054 24.5209 21 24.2665 21 24.0013V22.0013C21 21.7361 21.1054 21.4817 21.2929 21.2942C21.4804 21.1067 21.7348 21.0013 22 21.0013C22.2652 21.0013 22.5196 21.1067 22.7071 21.2942C22.8946 21.4817 23 21.7361 23 22.0013ZM19 22.0013V24.0013C19 24.2665 18.8946 24.5209 18.7071 24.7084C18.5196 24.8959 18.2652 25.0013 18 25.0013C17.7348 25.0013 17.4804 24.8959 17.2929 24.7084C17.1054 24.5209 17 24.2665 17 24.0013V22.0013C17 21.7361 17.1054 21.4817 17.2929 21.2942C17.4804 21.1067 17.7348 21.0013 18 21.0013C18.2652 21.0013 18.5196 21.1067 18.7071 21.2942C18.8946 21.4817 19 21.7361 19 22.0013ZM19 29.0013V31.0013C19 31.2665 18.8946 31.5209 18.7071 31.7084C18.5196 31.8959 18.2652 32.0013 18 32.0013C17.7348 32.0013 17.4804 31.8959 17.2929 31.7084C17.1054 31.5209 17 31.2665 17 31.0013V29.0013C17 28.7361 17.1054 28.4817 17.2929 28.2942C17.4804 28.1067 17.7348 28.0013 18 28.0013C18.2652 28.0013 18.5196 28.1067 18.7071 28.2942C18.8946 28.4817 19 28.7361 19 29.0013ZM23 29.0013V31.0013C23 31.2665 22.8946 31.5209 22.7071 31.7084C22.5196 31.8959 22.2652 32.0013 22 32.0013C21.7348 32.0013 21.4804 31.8959 21.2929 31.7084C21.1054 31.5209 21 31.2665 21 31.0013V29.0013C21 28.7361 21.1054 28.4817 21.2929 28.2942C21.4804 28.1067 21.7348 28.0013 22 28.0013C22.2652 28.0013 22.5196 28.1067 22.7071 28.2942C22.8946 28.4817 23 28.7361 23 29.0013Z" fill="white"/>
</svg>
