<svg width="49" height="49" viewBox="0 0 49 49" fill="none" xmlns="http://www.w3.org/2000/svg">
<circle cx="24.5" cy="24.5" r="24.5" fill="#F47D21"/>
<path d="M35 21C35.5304 21 36.0391 20.7893 36.4142 20.4142C36.7893 20.0391 37 19.5304 37 19V15C37 14.4696 36.7893 13.9609 36.4142 13.5858C36.0391 13.2107 35.5304 13 35 13H31C30.4696 13 29.9609 13.2107 29.5858 13.5858C29.2107 13.9609 29 14.4696 29 15V16H21V15C21 14.4696 20.7893 13.9609 20.4142 13.5858C20.0391 13.2107 19.5304 13 19 13H15C14.4696 13 13.9609 13.2107 13.5858 13.5858C13.2107 13.9609 13 14.4696 13 15V19C13 19.5304 13.2107 20.0391 13.5858 20.4142C13.9609 20.7893 14.4696 21 15 21H16V29H15C14.4696 29 13.9609 29.2107 13.5858 29.5858C13.2107 29.9609 13 30.4696 13 31V35C13 35.5304 13.2107 36.0391 13.5858 36.4142C13.9609 36.7893 14.4696 37 15 37H19C19.5304 37 20.0391 36.7893 20.4142 36.4142C20.7893 36.0391 21 35.5304 21 35V34H29V35C29 35.5304 29.2107 36.0391 29.5858 36.4142C29.9609 36.7893 30.4696 37 31 37H35C35.5304 37 36.0391 36.7893 36.4142 36.4142C36.7893 36.0391 37 35.5304 37 35V31C37 30.4696 36.7893 29.9609 36.4142 29.5858C36.0391 29.2107 35.5304 29 35 29H34V21H35ZM31 15H35V19H31V15ZM15 15H19V16.9875C18.9984 16.9958 18.9984 17.0042 19 17.0125V19H15V15ZM19 35H15V31H19V32.9875C18.9984 32.9958 18.9984 33.0042 19 33.0125V35ZM35 35H31V31H35V35ZM32 29H31C30.4696 29 29.9609 29.2107 29.5858 29.5858C29.2107 29.9609 29 30.4696 29 31V32H21V31C21 30.4696 20.7893 29.9609 20.4142 29.5858C20.0391 29.2107 19.5304 29 19 29H18V21H19C19.5304 21 20.0391 20.7893 20.4142 20.4142C20.7893 20.0391 21 19.5304 21 19V18H29V19C29 19.5304 29.2107 20.0391 29.5858 20.4142C29.9609 20.7893 30.4696 21 31 21H32V29Z" fill="white"/>
</svg>
