<svg width="49" height="49" viewBox="0 0 49 49" fill="none" xmlns="http://www.w3.org/2000/svg">
<circle cx="24.5" cy="24.5" r="24.5" fill="#F47D21"/>
<path d="M36 18.0017H31.615C31.6637 17.9605 31.7137 17.9205 31.7612 17.8767C32.1409 17.5395 32.4468 17.1275 32.66 16.6666C32.8731 16.2056 32.9889 15.7057 33 15.198C33.0164 14.6426 32.9191 14.0897 32.7142 13.5732C32.5092 13.0568 32.2008 12.5877 31.8079 12.1947C31.4151 11.8017 30.9461 11.4932 30.4297 11.2881C29.9133 11.0829 29.3604 10.9855 28.805 11.0017C28.2971 11.0127 27.7969 11.1284 27.3358 11.3415C26.8746 11.5547 26.4624 11.8607 26.125 12.2405C25.6581 12.7816 25.2785 13.3923 25 14.0505C24.7215 13.3923 24.3419 12.7816 23.875 12.2405C23.5376 11.8607 23.1254 11.5547 22.6642 11.3415C22.2031 11.1284 21.7029 11.0127 21.195 11.0017C20.6396 10.9855 20.0867 11.0829 19.5703 11.2881C19.0539 11.4932 18.5849 11.8017 18.1921 12.1947C17.7992 12.5877 17.4908 13.0568 17.2858 13.5732C17.0809 14.0897 16.9836 14.6426 17 15.198C17.0111 15.7057 17.1269 16.2056 17.34 16.6666C17.5532 17.1275 17.8591 17.5395 18.2388 17.8767C18.2863 17.918 18.3363 17.958 18.385 18.0017H14C13.4696 18.0017 12.9609 18.2125 12.5858 18.5875C12.2107 18.9626 12 19.4713 12 20.0017V24.0017C12 24.5322 12.2107 25.0409 12.5858 25.416C12.9609 25.791 13.4696 26.0017 14 26.0017V34.0017C14 34.5322 14.2107 35.0409 14.5858 35.416C14.9609 35.791 15.4696 36.0017 16 36.0017H34C34.5304 36.0017 35.0391 35.791 35.4142 35.416C35.7893 35.0409 36 34.5322 36 34.0017V26.0017C36.5304 26.0017 37.0391 25.791 37.4142 25.416C37.7893 25.0409 38 24.5322 38 24.0017V20.0017C38 19.4713 37.7893 18.9626 37.4142 18.5875C37.0391 18.2125 36.5304 18.0017 36 18.0017ZM27.625 13.5655C27.7833 13.3906 27.9761 13.2504 28.1912 13.1536C28.4063 13.0568 28.6391 13.0055 28.875 13.003H28.9363C29.2127 13.0047 29.486 13.0616 29.7402 13.1703C29.9944 13.2791 30.2244 13.4374 30.4166 13.6361C30.6088 13.8349 30.7594 14.07 30.8596 14.3276C30.9597 14.5853 31.0075 14.8604 31 15.1367C30.9975 15.3726 30.9462 15.6054 30.8494 15.8205C30.7526 16.0356 30.6123 16.2284 30.4375 16.3867C29.2512 17.4367 27.2825 17.8067 26.0625 17.9367C26.2125 16.613 26.625 14.6892 27.625 13.5655ZM19.6138 13.6105C20.0012 13.2231 20.5259 13.0043 21.0737 13.0017H21.135C21.3709 13.0043 21.6037 13.0556 21.8188 13.1524C22.0339 13.2492 22.2267 13.3894 22.385 13.5642C23.4338 14.7492 23.8038 16.7142 23.9338 17.9292C22.7188 17.8042 20.7537 17.4292 19.5688 16.3805C19.3939 16.2222 19.2537 16.0294 19.1569 15.8143C19.0601 15.5992 19.0088 15.3664 19.0063 15.1305C18.9985 14.8495 19.0479 14.5699 19.1515 14.3086C19.255 14.0474 19.4106 13.8098 19.6088 13.6105H19.6138ZM14 20.0017H24V24.0017H14V20.0017ZM16 26.0017H24V34.0017H16V26.0017ZM34 34.0017H26V26.0017H34V34.0017ZM36 24.0017H26V20.0017H36V24.0017Z" fill="white"/>
</svg>
