<svg width="49" height="49" viewBox="0 0 49 49" fill="none" xmlns="http://www.w3.org/2000/svg">
<circle cx="24.5" cy="24.5" r="24.5" fill="#F47D21"/>
<path d="M37 15H13C12.4696 15 11.9609 15.2107 11.5858 15.5858C11.2107 15.9609 11 16.4696 11 17V20C11 20.5304 11.2107 21.0391 11.5858 21.4142C11.9609 21.7893 12.4696 22 13 22V33C13 33.5304 13.2107 34.0391 13.5858 34.4142C13.9609 34.7893 14.4696 35 15 35H35C35.5304 35 36.0391 34.7893 36.4142 34.4142C36.7893 34.0391 37 33.5304 37 33V22C37.5304 22 38.0391 21.7893 38.4142 21.4142C38.7893 21.0391 39 20.5304 39 20V17C39 16.4696 38.7893 15.9609 38.4142 15.5858C38.0391 15.2107 37.5304 15 37 15ZM35 33H15V22H35V33ZM37 20H13V17H37V20ZM21 26C21 25.7348 21.1054 25.4804 21.2929 25.2929C21.4804 25.1054 21.7348 25 22 25H28C28.2652 25 28.5196 25.1054 28.7071 25.2929C28.8946 25.4804 29 25.7348 29 26C29 26.2652 28.8946 26.5196 28.7071 26.7071C28.5196 26.8946 28.2652 27 28 27H22C21.7348 27 21.4804 26.8946 21.2929 26.7071C21.1054 26.5196 21 26.2652 21 26Z" fill="white"/>
</svg>
